<!-- Generated by IcoMoon.io -->
<svg version="1.1" xmlns="http://www.w3.org/2000/svg" width="30" height="32" viewBox="0 0 30 32">
<title>cart</title>
<path fill="none" stroke-linejoin="miter" stroke-linecap="butt" stroke-miterlimit="4" stroke-width="1.4118" stroke="#000" d="M6.711 7.312h21.254c0.614 0 1.064 0.579 0.912 1.174l-1.789 6.997c-0.32 1.25-1.446 2.124-2.736 2.124h-15.857M0 1.411h4.378c0.925 0 1.713 0.673 1.859 1.587l2.842 17.855c0.145 0.914 0.934 1.586 1.859 1.586h15.606"></path>
<path fill="none" stroke-linejoin="miter" stroke-linecap="butt" stroke-miterlimit="4" stroke-width="1.4118" stroke="#000" d="M14.841 28.485c0 1.226-0.951 2.174-2.070 2.174s-2.070-0.949-2.070-2.174 0.951-2.174 2.070-2.174c1.119 0 2.070 0.949 2.070 2.174z"></path>
<path fill="none" stroke-linejoin="miter" stroke-linecap="butt" stroke-miterlimit="4" stroke-width="1.4118" stroke="#000" d="M27.055 28.485c0 1.226-0.951 2.174-2.070 2.174s-2.070-0.949-2.070-2.174 0.951-2.174 2.070-2.174c1.119 0 2.070 0.949 2.070 2.174z"></path>
</svg>
