<!-- Generated by IcoMoon.io -->
<svg version="1.1" xmlns="http://www.w3.org/2000/svg" width="33" height="32" viewBox="0 0 33 32">
<title>favorite</title>
<path d="M23.823 0c-2.825 0-5.469 1.272-7.23 3.404-1.761-2.132-4.405-3.404-7.23-3.404-5.162 0-9.362 4.177-9.362 9.312 0 4.021 2.41 8.671 7.164 13.823 3.658 3.964 7.638 7.034 8.771 7.88l0.657 0.491 0.657-0.491c1.133-0.846 5.113-3.916 8.771-7.88 4.754-5.151 7.165-9.802 7.165-13.823 0-5.135-4.2-9.312-9.363-9.312zM24.409 21.663c-3.009 3.261-6.247 5.896-7.816 7.111-1.57-1.215-4.807-3.851-7.816-7.111-4.31-4.67-6.588-8.941-6.588-12.351 0-3.935 3.218-7.136 7.174-7.136 2.603 0 5.007 1.411 6.273 3.683l0.957 1.717 0.957-1.717c1.266-2.272 3.67-3.683 6.273-3.683 3.956 0 7.174 3.201 7.174 7.136 0 3.41-2.278 7.681-6.588 12.351z"></path>
</svg>
