<!-- Generated by IcoMoon.io -->
<svg version="1.1" xmlns="http://www.w3.org/2000/svg" width="22" height="32" viewBox="0 0 22 32">
<title>location</title>
<path d="M10.88 0c-5.999 0-10.88 4.929-10.88 10.988 0 2.047 0.561 4.045 1.624 5.778l8.637 14.056c0.165 0.269 0.457 0.433 0.77 0.433 0.002 0 0.005 0 0.007 0 0.316-0.003 0.608-0.171 0.771-0.445l8.416-14.192c1.004-1.697 1.535-3.643 1.535-5.629 0-6.059-4.881-10.988-10.88-10.988zM18.669 15.677l-7.652 12.903-7.852-12.779c-0.885-1.443-1.364-3.107-1.364-4.813 0-5.049 4.079-9.169 9.079-9.169s9.073 4.12 9.073 9.169c0 1.656-0.448 3.277-1.284 4.689z"></path>
<path d="M10.875 4.63c-3.333 0-6.045 2.596-6.045 5.788 0 3.171 2.667 5.788 6.045 5.788 3.419 0 6.045-2.652 6.045-5.788 0-3.191-2.712-5.788-6.045-5.788zM10.875 14.289c-2.234 0-4.043-1.738-4.043-3.871 0-2.128 1.821-3.871 4.043-3.871s4.036 1.744 4.036 3.871c0 2.102-1.767 3.871-4.036 3.871z"></path>
</svg>
